<?xml version="1.0" encoding="UTF-8"?>
<svg xmlns="http://www.w3.org/2000/svg"
     xmlns:xlink="http://www.w3.org/1999/xlink"
     xmlns:gadfly="http://www.gadflyjl.org/ns"
     version="1.2"
     width="215.9mm" height="101.6mm" viewBox="0 0 215.9 101.6"
     stroke="none"
     fill="#000000"
     stroke-width="0.3"
     font-size="3.88"
>
<defs>
  <marker id="arrow" markerWidth="15" markerHeight="7" refX="5" refY="3.5" orient="auto" markerUnits="strokeWidth">
    <path d="M0,0 L15,3.5 L0,7 z" stroke="context-stroke" fill="context-stroke"/>
  </marker>
</defs>
<g class="plotroot xscalable yscalable" id="img-57c0b2c7-1">
  <g font-size="3.88" font-family="'PT Sans','Helvetica Neue','Helvetica',sans-serif" fill="#564A55" stroke="#000000" stroke-opacity="0.000" id="img-57c0b2c7-2">
    <g transform="translate(114.77,89.99)">
      <g class="primitive">
        <text text-anchor="middle" dy="0.6em">Δt</text>
      </g>
    </g>
  </g>
  <g class="guide xlabels" font-size="2.82" font-family="'PT Sans Caption','Helvetica Neue','Helvetica',sans-serif" fill="#6C606B" id="img-57c0b2c7-3">
    <g transform="translate(20.63,83.32)">
      <g class="primitive">
        <text text-anchor="middle" dy="0.6em">0</text>
      </g>
    </g>
    <g transform="translate(83.39,83.32)">
      <g class="primitive">
        <text text-anchor="middle" dy="0.6em">1</text>
      </g>
    </g>
    <g transform="translate(146.14,83.32)">
      <g class="primitive">
        <text text-anchor="middle" dy="0.6em">2</text>
      </g>
    </g>
    <g transform="translate(208.9,83.32)">
      <g class="primitive">
        <text text-anchor="middle" dy="0.6em">3</text>
      </g>
    </g>
  </g>
  <g clip-path="url(#img-57c0b2c7-4)">
    <g id="img-57c0b2c7-5">
      <g pointer-events="visible" stroke-width="0.3" fill="#000000" fill-opacity="0.000" stroke="#000000" stroke-opacity="0.000" class="guide background" id="img-57c0b2c7-6">
        <g transform="translate(114.77,43.66)" id="img-57c0b2c7-7">
          <path d="M-96.13,-38.66 L96.13,-38.66 96.13,38.66 -96.13,38.66  z" class="primitive"/>
        </g>
      </g>
      <g class="guide ygridlines xfixed" stroke-dasharray="0.5,0.5" stroke-width="0.2" stroke="#D0D0E0" id="img-57c0b2c7-8">
        <g transform="translate(114.77,80.31)" id="img-57c0b2c7-9">
          <path fill="none" d="M-96.13,0 L96.13,0 " class="primitive"/>
        </g>
        <g transform="translate(114.77,43.66)" id="img-57c0b2c7-10">
          <path fill="none" d="M-96.13,0 L96.13,0 " class="primitive"/>
        </g>
        <g transform="translate(114.77,7)" id="img-57c0b2c7-11">
          <path fill="none" d="M-96.13,0 L96.13,0 " class="primitive"/>
        </g>
      </g>
      <g class="guide xgridlines yfixed" stroke-dasharray="0.5,0.5" stroke-width="0.2" stroke="#D0D0E0" id="img-57c0b2c7-12">
        <g transform="translate(20.63,43.66)" id="img-57c0b2c7-13">
          <path fill="none" d="M0,-38.66 L0,38.66 " class="primitive"/>
        </g>
        <g transform="translate(83.39,43.66)" id="img-57c0b2c7-14">
          <path fill="none" d="M0,-38.66 L0,38.66 " class="primitive"/>
        </g>
        <g transform="translate(146.14,43.66)" id="img-57c0b2c7-15">
          <path fill="none" d="M0,-38.66 L0,38.66 " class="primitive"/>
        </g>
        <g transform="translate(208.9,43.66)" id="img-57c0b2c7-16">
          <path fill="none" d="M0,-38.66 L0,38.66 " class="primitive"/>
        </g>
      </g>
      <g class="plotpanel" id="img-57c0b2c7-17">
        <metadata>
          <boundingbox value="18.63166666666669mm 5.0mm 192.26833333333332mm 77.315mm"/>
          <unitbox value="-0.03186940625525624 1.027279547159517 3.0637388125105125 -1.0545590943190344"/>
        </metadata>
        <g stroke-width="0.3" fill="#000000" fill-opacity="0.000" class="geometry" id="img-57c0b2c7-18">
          <g class="color_LCHab{Float32}(70.0f0,60.0f0,240.0f0)" stroke-dasharray="none" stroke="#00BFFF" id="img-57c0b2c7-19">
            <g transform="translate(114.77,56.58)" id="img-57c0b2c7-20">
              <path fill="none" d="M-94.13,-49.58 L-87.86,-42.61 -81.58,-36.29 -75.31,-30.58 -69.03,-25.41 -62.76,-20.74 -56.48,-16.5 -50.2,-12.67 -43.93,-9.21 -37.65,-6.08 -31.38,-3.24 -25.1,-0.67 -18.83,1.65 -12.55,3.75 -6.28,5.65 0,7.37 6.28,8.93 12.55,10.34 18.83,11.61 25.1,12.77 31.38,13.81 37.65,14.75 43.93,15.61 50.2,16.38 56.48,17.08 62.76,17.71 69.03,18.29 75.31,18.81 81.58,19.27 87.86,19.7 94.13,20.08 " class="primitive"/>
            </g>
          </g>
        </g>
      </g>
    </g>
  </g>
  <g class="guide ylabels" font-size="2.82" font-family="'PT Sans Caption','Helvetica Neue','Helvetica',sans-serif" fill="#6C606B" id="img-57c0b2c7-21">
    <g transform="translate(17.63,80.31)" id="img-57c0b2c7-22">
      <g class="primitive">
        <text text-anchor="end" dy="0.35em">0.0</text>
      </g>
    </g>
    <g transform="translate(17.63,43.66)" id="img-57c0b2c7-23">
      <g class="primitive">
        <text text-anchor="end" dy="0.35em">0.5</text>
      </g>
    </g>
    <g transform="translate(17.63,7)" id="img-57c0b2c7-24">
      <g class="primitive">
        <text text-anchor="end" dy="0.35em">1.0</text>
      </g>
    </g>
  </g>
  <g font-size="3.88" font-family="'PT Sans','Helvetica Neue','Helvetica',sans-serif" fill="#564A55" stroke="#000000" stroke-opacity="0.000" id="img-57c0b2c7-25">
    <g transform="translate(8.81,41.66)" id="img-57c0b2c7-26">
      <g class="primitive">
        <text text-anchor="middle" dy="0.35em" transform="rotate(-90,0, 2)">ħ(Δt)</text>
      </g>
    </g>
  </g>
</g>
<defs>
  <clipPath id="img-57c0b2c7-4">
    <path d="M18.63,5 L210.9,5 210.9,82.32 18.63,82.32 " />
  </clipPath>
</defs>
</svg>
