<?xml version="1.0" encoding="UTF-8"?>
<svg xmlns="http://www.w3.org/2000/svg"
     xmlns:xlink="http://www.w3.org/1999/xlink"
     xmlns:gadfly="http://www.gadflyjl.org/ns"
     version="1.2"
     width="215.9mm" height="101.6mm" viewBox="0 0 215.9 101.6"
     stroke="none"
     fill="#000000"
     stroke-width="0.3"
     font-size="3.88"
>
<defs>
  <marker id="arrow" markerWidth="15" markerHeight="7" refX="5" refY="3.5" orient="auto" markerUnits="strokeWidth">
    <path d="M0,0 L15,3.5 L0,7 z" stroke="context-stroke" fill="context-stroke"/>
  </marker>
</defs>
<g class="plotroot xscalable yscalable" id="img-6451c5da-1">
  <g font-size="3.88" font-family="'PT Sans','Helvetica Neue','Helvetica',sans-serif" fill="#564A55" stroke="#000000" stroke-opacity="0.000" id="img-6451c5da-2">
    <g transform="translate(114.77,89.99)">
      <g class="primitive">
        <text text-anchor="middle" dy="0.6em">Δt</text>
      </g>
    </g>
  </g>
  <g class="guide xlabels" font-size="2.82" font-family="'PT Sans Caption','Helvetica Neue','Helvetica',sans-serif" fill="#6C606B" id="img-6451c5da-3">
    <g transform="translate(20.63,83.32)">
      <g class="primitive">
        <text text-anchor="middle" dy="0.6em">0.0</text>
      </g>
    </g>
    <g transform="translate(114.77,83.32)">
      <g class="primitive">
        <text text-anchor="middle" dy="0.6em">0.5</text>
      </g>
    </g>
    <g transform="translate(208.9,83.32)">
      <g class="primitive">
        <text text-anchor="middle" dy="0.6em">1.0</text>
      </g>
    </g>
  </g>
  <g clip-path="url(#img-6451c5da-4)">
    <g id="img-6451c5da-5">
      <g pointer-events="visible" stroke-width="0.3" fill="#000000" fill-opacity="0.000" stroke="#000000" stroke-opacity="0.000" class="guide background" id="img-6451c5da-6">
        <g transform="translate(114.77,43.66)" id="img-6451c5da-7">
          <path d="M-96.13,-38.66 L96.13,-38.66 96.13,38.66 -96.13,38.66  z" class="primitive"/>
        </g>
      </g>
      <g class="guide ygridlines xfixed" stroke-dasharray="0.5,0.5" stroke-width="0.2" stroke="#D0D0E0" id="img-6451c5da-8">
        <g transform="translate(114.77,80.31)" id="img-6451c5da-9">
          <path fill="none" d="M-96.13,0 L96.13,0 " class="primitive"/>
        </g>
        <g transform="translate(114.77,61.99)" id="img-6451c5da-10">
          <path fill="none" d="M-96.13,0 L96.13,0 " class="primitive"/>
        </g>
        <g transform="translate(114.77,43.66)" id="img-6451c5da-11">
          <path fill="none" d="M-96.13,0 L96.13,0 " class="primitive"/>
        </g>
        <g transform="translate(114.77,25.33)" id="img-6451c5da-12">
          <path fill="none" d="M-96.13,0 L96.13,0 " class="primitive"/>
        </g>
        <g transform="translate(114.77,7)" id="img-6451c5da-13">
          <path fill="none" d="M-96.13,0 L96.13,0 " class="primitive"/>
        </g>
      </g>
      <g class="guide xgridlines yfixed" stroke-dasharray="0.5,0.5" stroke-width="0.2" stroke="#D0D0E0" id="img-6451c5da-14">
        <g transform="translate(20.63,43.66)" id="img-6451c5da-15">
          <path fill="none" d="M0,-38.66 L0,38.66 " class="primitive"/>
        </g>
        <g transform="translate(114.77,43.66)" id="img-6451c5da-16">
          <path fill="none" d="M0,-38.66 L0,38.66 " class="primitive"/>
        </g>
        <g transform="translate(208.9,43.66)" id="img-6451c5da-17">
          <path fill="none" d="M0,-38.66 L0,38.66 " class="primitive"/>
        </g>
      </g>
      <g class="plotpanel" id="img-6451c5da-18">
        <metadata>
          <boundingbox value="18.63166666666669mm 5.0mm 192.26833333333332mm 77.315mm"/>
          <unitbox value="-0.010623135418418748 2.054559094319034 1.0212462708368375 -2.1091181886380688"/>
        </metadata>
        <g stroke-width="0.3" fill="#000000" fill-opacity="0.000" class="geometry" id="img-6451c5da-19">
          <g class="color_LCHab{Float32}(70.0f0,60.0f0,240.0f0)" stroke-dasharray="none" stroke="#00BFFF" id="img-6451c5da-20">
            <g transform="translate(114.77,43.69)" id="img-6451c5da-21">
              <path fill="none" d="M-94.13,36.62 L-93.95,36.62 -93.76,36.62 -93.57,36.62 -93.38,36.62 -93.19,36.62 -93,36.62 -92.82,36.61 -92.63,36.61 -92.44,36.6 -92.25,36.59 -92.06,36.57 -91.87,36.56 -91.69,36.54 -91.5,36.51 -91.31,36.49 -91.12,36.46 -90.93,36.42 -90.75,36.38 -90.56,36.34 -90.37,36.29 -90.18,36.24 -89.99,36.19 -89.8,36.13 -89.62,36.07 -89.43,36 -89.24,35.93 -89.05,35.86 -88.86,35.78 -88.67,35.7 -88.49,35.61 -88.3,35.53 -88.11,35.43 -87.92,35.34 -87.73,35.24 -87.54,35.13 -87.36,35.03 -87.17,34.92 -86.98,34.8 -86.79,34.69 -86.6,34.57 -86.42,34.45 -86.23,34.32 -86.04,34.2 -85.85,34.07 -85.66,33.93 -85.47,33.8 -85.29,33.66 -85.1,33.52 -84.91,33.38 -84.72,33.23 -84.53,33.08 -84.34,32.93 -84.16,32.78 -83.97,32.63 -83.78,32.47 -83.59,32.32 -83.4,32.16 -83.21,32 -83.03,31.83 -82.84,31.67 -82.65,31.5 -82.46,31.33 -82.27,31.17 -82.08,30.99 -81.9,30.82 -81.71,30.65 -81.52,30.48 -81.33,30.3 -81.14,30.12 -80.96,29.94 -80.77,29.77 -80.58,29.58 -80.39,29.4 -80.2,29.22 -80.01,29.04 -79.83,28.85 -79.64,28.67 -79.45,28.48 -79.26,28.3 -79.07,28.11 -78.88,27.92 -78.7,27.73 -78.51,27.54 -78.32,27.35 -78.13,27.16 -77.94,26.97 -77.75,26.78 -77.57,26.59 -77.38,26.4 -77.19,26.2 -77,26.01 -76.81,25.82 -76.63,25.62 -76.44,25.43 -76.25,25.23 -76.06,25.04 -75.87,24.84 -75.68,24.65 -75.5,24.45 -75.31,24.26 -75.12,24.06 -74.93,23.86 -74.74,23.67 -74.55,23.47 -74.37,23.28 -74.18,23.08 -73.99,22.88 -73.8,22.69 -73.61,22.49 -73.42,22.29 -73.24,22.1 -73.05,21.9 -72.86,21.7 -72.67,21.51 -72.48,21.31 -72.3,21.12 -72.11,20.92 -71.92,20.72 -71.73,20.53 -71.54,20.33 -71.35,20.14 -71.17,19.94 -70.98,19.75 -70.79,19.55 -70.6,19.36 -70.41,19.16 -70.22,18.97 -70.04,18.78 -69.85,18.58 -69.66,18.39 -69.47,18.2 -69.28,18 -69.09,17.81 -68.91,17.62 -68.72,17.43 -68.53,17.23 -68.34,17.04 -68.15,16.85 -67.96,16.66 -67.78,16.47 -67.59,16.28 -67.4,16.09 -67.21,15.9 -67.02,15.71 -66.84,15.53 -66.65,15.34 -66.46,15.15 -66.27,14.96 -66.08,14.78 -65.89,14.59 -65.71,14.4 -65.52,14.22 -65.33,14.03 -65.14,13.85 -64.95,13.66 -64.76,13.48 -64.58,13.3 -64.39,13.11 -64.2,12.93 -64.01,12.75 -63.82,12.57 -63.63,12.39 -63.45,12.2 -63.26,12.02 -63.07,11.84 -62.88,11.67 -62.69,11.49 -62.51,11.31 -62.32,11.13 -62.13,10.95 -61.94,10.78 -61.75,10.6 -61.56,10.42 -61.38,10.25 -61.19,10.07 -61,9.9 -60.81,9.73 -60.62,9.55 -60.43,9.38 -60.25,9.21 -60.06,9.03 -59.87,8.86 -59.68,8.69 -59.49,8.52 -59.3,8.35 -59.12,8.18 -58.93,8.01 -58.74,7.85 -58.55,7.68 -58.36,7.51 -58.17,7.34 -57.99,7.18 -57.8,7.01 -57.61,6.85 -57.42,6.68 -57.23,6.52 -57.05,6.36 -56.86,6.19 -56.67,6.03 -56.48,5.87 -56.29,5.71 -56.1,5.55 -55.92,5.39 -55.73,5.23 -55.54,5.07 -55.35,4.91 -55.16,4.75 -54.97,4.59 -54.79,4.44 -54.6,4.28 -54.41,4.12 -54.22,3.97 -54.03,3.81 -53.84,3.66 -53.66,3.51 -53.47,3.35 -53.28,3.2 -53.09,3.05 -52.9,2.9 -52.72,2.74 -52.53,2.59 -52.34,2.44 -52.15,2.29 -51.96,2.15 -51.77,2 -51.59,1.85 -51.4,1.7 -51.21,1.55 -51.02,1.41 -50.83,1.26 -50.64,1.12 -50.46,0.97 -50.27,0.83 -50.08,0.69 -49.89,0.54 -49.7,0.4 -49.51,0.26 -49.33,0.12 -49.14,-0.02 -48.95,-0.17 -48.76,-0.31 -48.57,-0.44 -48.38,-0.58 -48.2,-0.72 -48.01,-0.86 -47.82,-1 -47.63,-1.13 -47.44,-1.27 -47.26,-1.4 -47.07,-1.54 -46.88,-1.67 -46.69,-1.81 -46.5,-1.94 -46.31,-2.07 -46.13,-2.21 -45.94,-2.34 -45.75,-2.47 -45.56,-2.6 -45.37,-2.73 -45.18,-2.86 -45,-2.99 -44.81,-3.12 -44.62,-3.25 -44.43,-3.38 -44.24,-3.5 -44.05,-3.63 -43.87,-3.76 -43.68,-3.88 -43.49,-4.01 -43.3,-4.13 -43.11,-4.26 -42.93,-4.38 -42.74,-4.5 -42.55,-4.63 -42.36,-4.75 -42.17,-4.87 -41.98,-4.99 -41.8,-5.11 -41.61,-5.23 -41.42,-5.35 -41.23,-5.47 -41.04,-5.59 -40.85,-5.71 -40.67,-5.82 -40.48,-5.94 -40.29,-6.06 -40.1,-6.17 -39.91,-6.29 -39.72,-6.4 -39.54,-6.52 -39.35,-6.63 -39.16,-6.75 -38.97,-6.86 -38.78,-6.97 -38.6,-7.09 -38.41,-7.2 -38.22,-7.31 -38.03,-7.42 -37.84,-7.53 -37.65,-7.64 -37.47,-7.75 -37.28,-7.86 -37.09,-7.96 -36.9,-8.07 -36.71,-8.18 -36.52,-8.29 -36.34,-8.39 -36.15,-8.5 -35.96,-8.6 -35.77,-8.71 -35.58,-8.81 -35.39,-8.92 -35.21,-9.02 -35.02,-9.12 -34.83,-9.23 -34.64,-9.33 -34.45,-9.43 -34.26,-9.53 -34.08,-9.63 -33.89,-9.73 -33.7,-9.83 -33.51,-9.93 -33.32,-10.03 -33.14,-10.13 -32.95,-10.22 -32.76,-10.32 -32.57,-10.42 -32.38,-10.52 -32.19,-10.61 -32.01,-10.71 -31.82,-10.8 -31.63,-10.9 -31.44,-10.99 -31.25,-11.08 -31.06,-11.18 -30.88,-11.27 -30.69,-11.36 -30.5,-11.45 -30.31,-11.54 -30.12,-11.64 -29.93,-11.73 -29.75,-11.82 -29.56,-11.9 -29.37,-11.99 -29.18,-12.08 -28.99,-12.17 -28.81,-12.26 -28.62,-12.35 -28.43,-12.43 -28.24,-12.52 -28.05,-12.6 -27.86,-12.69 -27.68,-12.77 -27.49,-12.86 -27.3,-12.94 -27.11,-13.03 -26.92,-13.11 -26.73,-13.19 -26.55,-13.27 -26.36,-13.36 -26.17,-13.44 -25.98,-13.52 -25.79,-13.6 -25.6,-13.68 -25.42,-13.76 -25.23,-13.84 -25.04,-13.92 -24.85,-14 -24.66,-14.07 -24.47,-14.15 -24.29,-14.23 -24.1,-14.3 -23.91,-14.38 -23.72,-14.46 -23.53,-14.53 -23.35,-14.61 -23.16,-14.68 -22.97,-14.75 -22.78,-14.83 -22.59,-14.9 -22.4,-14.97 -22.22,-15.05 -22.03,-15.12 -21.84,-15.19 -21.65,-15.26 -21.46,-15.33 -21.27,-15.4 -21.09,-15.47 -20.9,-15.54 -20.71,-15.61 -20.52,-15.68 -20.33,-15.74 -20.14,-15.81 -19.96,-15.88 -19.77,-15.95 -19.58,-16.01 -19.39,-16.08 -19.2,-16.14 -19.02,-16.21 -18.83,-16.27 -18.64,-16.34 -18.45,-16.4 -18.26,-16.46 -18.07,-16.53 -17.89,-16.59 -17.7,-16.65 -17.51,-16.71 -17.32,-16.77 -17.13,-16.83 -16.94,-16.89 -16.76,-16.95 -16.57,-17.01 -16.38,-17.07 -16.19,-17.13 -16,-17.19 -15.81,-17.25 -15.63,-17.31 -15.44,-17.36 -15.25,-17.42 -15.06,-17.47 -14.87,-17.53 -14.68,-17.59 -14.5,-17.64 -14.31,-17.7 -14.12,-17.75 -13.93,-17.8 -13.74,-17.86 -13.56,-17.91 -13.37,-17.96 -13.18,-18.01 -12.99,-18.06 -12.8,-18.12 -12.61,-18.17 -12.43,-18.22 -12.24,-18.27 -12.05,-18.32 -11.86,-18.37 -11.67,-18.41 -11.48,-18.46 -11.3,-18.51 -11.11,-18.56 -10.92,-18.6 -10.73,-18.65 -10.54,-18.7 -10.35,-18.74 -10.17,-18.79 -9.98,-18.83 -9.79,-18.88 -9.6,-18.92 -9.41,-18.97 -9.23,-19.01 -9.04,-19.05 -8.85,-19.09 -8.66,-19.14 -8.47,-19.18 -8.28,-19.22 -8.1,-19.26 -7.91,-19.3 -7.72,-19.34 -7.53,-19.38 -7.34,-19.42 -7.15,-19.46 -6.97,-19.5 -6.78,-19.53 -6.59,-19.57 -6.4,-19.61 -6.21,-19.65 -6.02,-19.68 -5.84,-19.72 -5.65,-19.75 -5.46,-19.79 -5.27,-19.82 -5.08,-19.86 -4.89,-19.89 -4.71,-19.92 -4.52,-19.96 -4.33,-19.99 -4.14,-20.02 -3.95,-20.05 -3.77,-20.09 -3.58,-20.12 -3.39,-20.15 -3.2,-20.18 -3.01,-20.21 -2.82,-20.24 -2.64,-20.26 -2.45,-20.29 -2.26,-20.32 -2.07,-20.35 -1.88,-20.38 -1.69,-20.4 -1.51,-20.43 -1.32,-20.45 -1.13,-20.48 -0.94,-20.51 -0.75,-20.53 -0.56,-20.55 -0.38,-20.58 -0.19,-20.6 0,-20.62 0.19,-20.65 0.38,-20.67 0.56,-20.69 0.75,-20.71 0.94,-20.73 1.13,-20.75 1.32,-20.77 1.51,-20.79 1.69,-20.81 1.88,-20.83 2.07,-20.85 2.26,-20.87 2.45,-20.89 2.64,-20.9 2.82,-20.92 3.01,-20.94 3.2,-20.95 3.39,-20.97 3.58,-20.98 3.77,-21 3.95,-21.01 4.14,-21.02 4.33,-21.04 4.52,-21.05 4.71,-21.06 4.89,-21.07 5.08,-21.09 5.27,-21.1 5.46,-21.11 5.65,-21.12 5.84,-21.13 6.02,-21.14 6.21,-21.15 6.4,-21.15 6.59,-21.16 6.78,-21.17 6.97,-21.18 7.15,-21.18 7.34,-21.19 7.53,-21.2 7.72,-21.2 7.91,-21.21 8.1,-21.21 8.28,-21.22 8.47,-21.22 8.66,-21.22 8.85,-21.23 9.04,-21.23 9.23,-21.23 9.41,-21.23 9.6,-21.23 9.79,-21.23 9.98,-21.23 10.17,-21.23 10.35,-21.23 10.54,-21.23 10.73,-21.23 10.92,-21.23 11.11,-21.22 11.3,-21.22 11.48,-21.22 11.67,-21.21 11.86,-21.21 12.05,-21.2 12.24,-21.2 12.43,-21.19 12.61,-21.19 12.8,-21.18 12.99,-21.17 13.18,-21.17 13.37,-21.16 13.56,-21.15 13.74,-21.14 13.93,-21.13 14.12,-21.12 14.31,-21.11 14.5,-21.1 14.68,-21.09 14.87,-21.08 15.06,-21.06 15.25,-21.05 15.44,-21.04 15.63,-21.02 15.81,-21.01 16,-21 16.19,-20.98 16.38,-20.97 16.57,-20.95 16.76,-20.93 16.94,-20.92 17.13,-20.9 17.32,-20.88 17.51,-20.86 17.7,-20.84 17.89,-20.82 18.07,-20.8 18.26,-20.78 18.45,-20.76 18.64,-20.74 18.83,-20.72 19.02,-20.7 19.2,-20.67 19.39,-20.65 19.58,-20.63 19.77,-20.6 19.96,-20.58 20.14,-20.55 20.33,-20.53 20.52,-20.5 20.71,-20.47 20.9,-20.44 21.09,-20.42 21.27,-20.39 21.46,-20.36 21.65,-20.33 21.84,-20.3 22.03,-20.27 22.22,-20.24 22.4,-20.21 22.59,-20.17 22.78,-20.14 22.97,-20.11 23.16,-20.08 23.35,-20.04 23.53,-20.01 23.72,-19.97 23.91,-19.94 24.1,-19.9 24.29,-19.86 24.47,-19.83 24.66,-19.79 24.85,-19.75 25.04,-19.71 25.23,-19.67 25.42,-19.63 25.6,-19.59 25.79,-19.55 25.98,-19.51 26.17,-19.46 26.36,-19.42 26.55,-19.38 26.73,-19.33 26.92,-19.29 27.11,-19.24 27.3,-19.2 27.49,-19.15 27.68,-19.11 27.86,-19.06 28.05,-19.01 28.24,-18.96 28.43,-18.91 28.62,-18.86 28.81,-18.81 28.99,-18.76 29.18,-18.71 29.37,-18.66 29.56,-18.61 29.75,-18.55 29.93,-18.5 30.12,-18.45 30.31,-18.39 30.5,-18.34 30.69,-18.28 30.88,-18.22 31.06,-18.17 31.25,-18.11 31.44,-18.05 31.63,-17.99 31.82,-17.93 32.01,-17.87 32.19,-17.81 32.38,-17.75 32.57,-17.69 32.76,-17.62 32.95,-17.56 33.14,-17.5 33.32,-17.43 33.51,-17.37 33.7,-17.3 33.89,-17.24 34.08,-17.17 34.26,-17.1 34.45,-17.03 34.64,-16.96 34.83,-16.89 35.02,-16.82 35.21,-16.75 35.39,-16.68 35.58,-16.61 35.77,-16.54 35.96,-16.46 36.15,-16.39 36.34,-16.31 36.52,-16.24 36.71,-16.16 36.9,-16.08 37.09,-16.01 37.28,-15.93 37.47,-15.85 37.65,-15.77 37.84,-15.69 38.03,-15.61 38.22,-15.53 38.41,-15.44 38.6,-15.36 38.78,-15.28 38.97,-15.19 39.16,-15.11 39.35,-15.02 39.54,-14.94 39.72,-14.85 39.91,-14.76 40.1,-14.67 40.29,-14.58 40.48,-14.49 40.67,-14.4 40.85,-14.31 41.04,-14.22 41.23,-14.13 41.42,-14.03 41.61,-13.94 41.8,-13.84 41.98,-13.75 42.17,-13.65 42.36,-13.55 42.55,-13.45 42.74,-13.36 42.93,-13.26 43.11,-13.16 43.3,-13.06 43.49,-12.95 43.68,-12.85 43.87,-12.75 44.05,-12.64 44.24,-12.54 44.43,-12.43 44.62,-12.33 44.81,-12.22 45,-12.11 45.18,-12 45.37,-11.89 45.56,-11.78 45.75,-11.67 45.94,-11.56 46.13,-11.44 46.31,-11.33 46.5,-11.22 46.69,-11.1 46.88,-10.99 47.07,-10.87 47.26,-10.75 47.44,-10.63 47.63,-10.51 47.82,-10.39 48.01,-10.27 48.2,-10.15 48.38,-10.03 48.57,-9.9 48.76,-9.78 48.95,-9.65 49.14,-9.53 49.33,-9.4 49.51,-9.27 49.7,-9.14 49.89,-9.01 50.08,-8.88 50.27,-8.75 50.46,-8.62 50.64,-8.49 50.83,-8.35 51.02,-8.22 51.21,-8.08 51.4,-7.94 51.59,-7.81 51.77,-7.67 51.96,-7.53 52.15,-7.39 52.34,-7.25 52.53,-7.11 52.72,-6.96 52.9,-6.82 53.09,-6.67 53.28,-6.53 53.47,-6.38 53.66,-6.23 53.84,-6.08 54.03,-5.94 54.22,-5.78 54.41,-5.63 54.6,-5.48 54.79,-5.33 54.97,-5.17 55.16,-5.02 55.35,-4.86 55.54,-4.7 55.73,-4.55 55.92,-4.39 56.1,-4.23 56.29,-4.07 56.48,-3.9 56.67,-3.74 56.86,-3.58 57.05,-3.41 57.23,-3.25 57.42,-3.08 57.61,-2.91 57.8,-2.74 57.99,-2.57 58.17,-2.4 58.36,-2.23 58.55,-2.06 58.74,-1.88 58.93,-1.71 59.12,-1.53 59.3,-1.35 59.49,-1.18 59.68,-1 59.87,-0.82 60.06,-0.64 60.25,-0.45 60.43,-0.27 60.62,-0.09 60.81,0.1 61,0.29 61.19,0.47 61.38,0.66 61.56,0.85 61.75,1.04 61.94,1.23 62.13,1.43 62.32,1.62 62.51,1.82 62.69,2.01 62.88,2.21 63.07,2.41 63.26,2.6 63.45,2.81 63.63,3.01 63.82,3.21 64.01,3.41 64.2,3.62 64.39,3.82 64.58,4.03 64.76,4.24 64.95,4.44 65.14,4.65 65.33,4.86 65.52,5.08 65.71,5.29 65.89,5.5 66.08,5.72 66.27,5.93 66.46,6.15 66.65,6.37 66.84,6.59 67.02,6.81 67.21,7.03 67.4,7.25 67.59,7.48 67.78,7.7 67.96,7.93 68.15,8.15 68.34,8.38 68.53,8.61 68.72,8.84 68.91,9.07 69.09,9.3 69.28,9.53 69.47,9.77 69.66,10 69.85,10.24 70.04,10.47 70.22,10.71 70.41,10.95 70.6,11.19 70.79,11.43 70.98,11.67 71.17,11.92 71.35,12.16 71.54,12.4 71.73,12.65 71.92,12.9 72.11,13.14 72.3,13.39 72.48,13.64 72.67,13.89 72.86,14.14 73.05,14.39 73.24,14.65 73.42,14.9 73.61,15.15 73.8,15.41 73.99,15.66 74.18,15.92 74.37,16.18 74.55,16.43 74.74,16.69 74.93,16.95 75.12,17.21 75.31,17.47 75.5,17.73 75.68,18 75.87,18.26 76.06,18.52 76.25,18.78 76.44,19.05 76.63,19.31 76.81,19.58 77,19.84 77.19,20.11 77.38,20.38 77.57,20.64 77.75,20.91 77.94,21.18 78.13,21.44 78.32,21.71 78.51,21.98 78.7,22.25 78.88,22.51 79.07,22.78 79.26,23.05 79.45,23.32 79.64,23.58 79.83,23.85 80.01,24.12 80.2,24.38 80.39,24.65 80.58,24.92 80.77,25.18 80.96,25.45 81.14,25.71 81.33,25.98 81.52,26.24 81.71,26.5 81.9,26.76 82.08,27.02 82.27,27.28 82.46,27.54 82.65,27.8 82.84,28.06 83.03,28.31 83.21,28.56 83.4,28.82 83.59,29.07 83.78,29.31 83.97,29.56 84.16,29.81 84.34,30.05 84.53,30.29 84.72,30.53 84.91,30.76 85.1,31 85.29,31.23 85.47,31.46 85.66,31.68 85.85,31.9 86.04,32.12 86.23,32.34 86.42,32.55 86.6,32.76 86.79,32.96 86.98,33.16 87.17,33.36 87.36,33.55 87.54,33.74 87.73,33.93 87.92,34.1 88.11,34.28 88.3,34.45 88.49,34.61 88.67,34.77 88.86,34.92 89.05,35.07 89.24,35.21 89.43,35.34 89.62,35.47 89.8,35.59 89.99,35.7 90.18,35.81 90.37,35.91 90.56,36.01 90.75,36.09 90.93,36.17 91.12,36.25 91.31,36.31 91.5,36.37 91.69,36.42 91.87,36.47 92.06,36.51 92.25,36.54 92.44,36.56 92.63,36.58 92.82,36.6 93,36.61 93.19,36.61 93.38,36.62 93.57,36.62 93.76,36.62 93.95,36.62 94.13,36.62 " class="primitive"/>
            </g>
          </g>
        </g>
      </g>
    </g>
  </g>
  <g class="guide ylabels" font-size="2.82" font-family="'PT Sans Caption','Helvetica Neue','Helvetica',sans-serif" fill="#6C606B" id="img-6451c5da-22">
    <g transform="translate(17.63,80.31)" id="img-6451c5da-23">
      <g class="primitive">
        <text text-anchor="end" dy="0.35em">0.0</text>
      </g>
    </g>
    <g transform="translate(17.63,61.99)" id="img-6451c5da-24">
      <g class="primitive">
        <text text-anchor="end" dy="0.35em">0.5</text>
      </g>
    </g>
    <g transform="translate(17.63,43.66)" id="img-6451c5da-25">
      <g class="primitive">
        <text text-anchor="end" dy="0.35em">1.0</text>
      </g>
    </g>
    <g transform="translate(17.63,25.33)" id="img-6451c5da-26">
      <g class="primitive">
        <text text-anchor="end" dy="0.35em">1.5</text>
      </g>
    </g>
    <g transform="translate(17.63,7)" id="img-6451c5da-27">
      <g class="primitive">
        <text text-anchor="end" dy="0.35em">2.0</text>
      </g>
    </g>
  </g>
  <g font-size="3.88" font-family="'PT Sans','Helvetica Neue','Helvetica',sans-serif" fill="#564A55" stroke="#000000" stroke-opacity="0.000" id="img-6451c5da-28">
    <g transform="translate(8.81,41.66)" id="img-6451c5da-29">
      <g class="primitive">
        <text text-anchor="middle" dy="0.35em" transform="rotate(-90,0, 2)">ħ(Δt)</text>
      </g>
    </g>
  </g>
</g>
<defs>
  <clipPath id="img-6451c5da-4">
    <path d="M18.63,5 L210.9,5 210.9,82.32 18.63,82.32 " />
  </clipPath>
</defs>
</svg>
